<?xml version="1.0" standalone="no"?>
<!DOCTYPE svg PUBLIC "-//W3C//DTD SVG 20010904//EN"
 "http://www.w3.org/TR/2001/REC-SVG-20010904/DTD/svg10.dtd">
<svg version="1.0" xmlns="http://www.w3.org/2000/svg"
 width="34.000000pt" height="34.000000pt" viewBox="0 0 34.000000 34.000000"
 preserveAspectRatio="xMidYMid meet">

<g transform="translate(0.000000,34.000000) scale(0.100000,-0.100000)"
fill="#FFF" stroke="none">
<path d="M105 326 c-42 -18 -93 -79 -101 -121 -11 -61 4 -106 51 -152 34 -32
55 -43 90 -49 25 -3 48 -4 51 -2 2 3 -18 8 -46 12 -39 5 -58 15 -89 44 -67 64
-68 157 -2 223 101 101 267 32 272 -113 1 -19 3 -25 6 -15 9 35 -8 87 -40 124
-52 60 -125 78 -192 49z"/>
<path d="M81 173 c0 -49 3 -81 6 -73 4 8 19 27 35 42 15 14 28 37 28 50 0 32
-27 68 -51 68 -17 0 -19 -7 -18 -87z m49 51 c11 -28 -5 -74 -27 -82 -9 -3 -13
12 -13 52 0 44 3 56 15 56 9 0 20 -12 25 -26z"/>
<path d="M172 168 c-2 -86 3 -99 25 -77 8 8 17 8 31 0 11 -6 23 -11 26 -11 3
0 5 39 4 88 l-2 87 -3 -77 c-4 -78 -9 -88 -31 -66 -8 8 -15 8 -26 -1 -13 -11
-16 -3 -19 66 l-3 78 -2 -87z"/>
<path d="M320 115 c0 -8 -18 -33 -41 -56 -22 -22 -32 -36 -21 -30 39 21 92
101 67 101 -3 0 -5 -7 -5 -15z"/>
</g>
</svg>
